# xmcd
#
# Track frame offsets: 
#        182
#        4745
#        22280
#        25912
#        58647
#        69252
#        110837
#        115815
#        136822
#        143627
#        165010
#        171867
#        188935
#        195675
#        223320
#        230530
#        259165
#
# Disc length: 3597 seconds
#
# Revision: 2
# Processed by: cddbd v1.4PL0 Copyright (c) Steve Scherf et al.
# Submitted via: ExactAudioCopy v0.90b4
#
DISCID=f20e0b11
DTITLE=Scott Fitzgerald - Dreamland
DYEAR=1991
DGENRE=New Age
TTITLE0=Soft Ocean Waves - Spring Showers
TTITLE1=First Dream Of Winter
TTITLE2=Winds - Waves
TTITLE3=Canon In D (Pachelbel)
TTITLE4=Waves - Swamp Night
TTITLE5=Moonlight Sonata  (Beethoven)
TTITLE6=Forest Night By Gentle Stream
TTITLE7=Dream Of Earth And Sky
TTITLE8=Rain In Forest At Night
TTITLE9=Raindance
TTITLE10=Ranindrops - Rainstick
TTITLE11=Waterchimes
TTITLE12=Mountain Stream
TTITLE13=Floating World
TTITLE14=Stream - Ocean
TTITLE15=Canon In D (Reprise)
TTITLE16=Soft Ocean Waves
EXTD=Deep Relaxation and Sleep
EXTT0=
EXTT1=
EXTT2=
EXTT3=
EXTT4=
EXTT5=
EXTT6=
EXTT7=
EXTT8=
EXTT9=
EXTT10=
EXTT11=
EXTT12=
EXTT13=
EXTT14=
EXTT15=
EXTT16=
PLAYORDER=
